# xmcd CD database file
# Copyright (C) 1993-1998 Ti Kan
#
# Track frame offsets:
# 187
# 17052
# 42732
# 58865
# 85292
# 98935
# 126952
# 141665
# 150742
# 165915
# 187390
#
# Disc length: 2799 seconds
# Revision: 0
# Processed by: cddbd v1.4b41PL1 Copyright (c) Steve Scherf et al.
# Submitted via: CDSpectrumPro v3.2.327
#
DISCID=a20aed0b
DTITLE=The Mahoots - Resurrection Lily
DYEAR=1900
DGENRE=
TTITLE0=World of Speed
TTITLE1=Hypermart
TTITLE2=Parkway
TTITLE3=The Man Who Cannot Love
TTITLE4=I Can't Seem to Drink Enough
TTITLE5=Arthur Kennedy
TTITLE6=The Promised Land is Dead
TTITLE7=Angel at my Side
TTITLE8=(Grass Grows Over) The Old Red Brick
TTITLE9=Resurrection Lily
TTITLE10=Absolute Mercy
EXTD=
EXTT0=
EXTT1=
EXTT2=
EXTT3=
EXTT4=
EXTT5=
EXTT6=
EXTT7=
EXTT8=
EXTT9=
EXTT10=
PLAYORDER=
